# xmcd
#
# Track frame offsets:
#	150
#	14240
#	28640
#	40897
#	55927
#	67712
#	79600
#	93007
#	108072
#	121995
#	139310
#	155812
#	170995
#	190115
#	200850
#	215762
#	229502
#	243937
#	259552
#	279137
#
# Disc length: 3931
#
# Revision: 3
# Processed by: cddbd v1.5.1PL0 Copyright (c) Steve Scherf et al.
# Submitted via: OrangeCD 5.2
# Normalized: r2:DSETVAR1
#
DISCID=150f5914
DTITLE=Various Artist - The Most Awesome Line Dancing Album 2
DYEAR=1998
DGENRE=Country
TTITLE0=Lee Kernaghan - Skinny Dippin'
TTITLE1=Gina Jeffreys - Girls Night Out
TTITLE2=Pirates Of The Mississippi - Wild Side Of Life
TTITLE3=Steven Wayne Horton - Roll Over
TTITLE4=Lacy J. Dalton - Love Hurts
TTITLE5=Tanya Tucker - Walkin' Shoes
TTITLE6=Tania Kernaghan - Boys In Boots
TTITLE7=Charlie Daniels - Fias Do Do
TTITLE8=Ricky Lynn Gregg - If I Had A Cheatin' Heart
TTITLE9=Dan Seals - Love On Arrival
TTITLE10=Dean Miller - I Feel Bad
TTITLE11=Lee Kernaghan - The Outback Club
TTITLE12=Chris Ledoux - Cadillac Ranch
TTITLE13=Eddie Rabbitt - Two Dollars In The Jukebox
TTITLE14=Asleep At The Wheel - She Came To Dance
TTITLE15=Pearl River - Good Thing Going
TTITLE16=Emilo - Life Is Good
TTITLE17=John Berry - Kiss Me In The Car
TTITLE18=George Ducas - Stay The Night
TTITLE19=Billy Dean - Hammer Down
EXTD=
EXTT0=
EXTT1=
EXTT2=
EXTT3=
EXTT4=
EXTT5=
EXTT6=
EXTT7=
EXTT8=
EXTT9=
EXTT10=
EXTT11=
EXTT12=
EXTT13=
EXTT14=
EXTT15=
EXTT16=
EXTT17=
EXTT18=
EXTT19=
PLAYORDER=
